<svg width="126" height="125" viewBox="0 0 126 125" fill="none" xmlns="http://www.w3.org/2000/svg">
<path fill-rule="evenodd" clip-rule="evenodd" d="M72.7272 3.25632C66.9236 -1.09195 58.9477 -1.09195 53.1442 3.25632L18.6007 29.1378C14.4851 32.2214 12.0625 37.0637 12.0625 42.2064L12.0627 79.0191C24.8569 73.1884 45.9316 67.1958 66.8874 63.9176C66.9776 63.9057 67.0598 63.8663 67.1265 63.8075C67.1933 63.7487 67.2401 63.67 67.2635 63.5838C67.2835 63.4976 67.2795 63.4075 67.2521 63.3213C67.2247 63.2391 67.1694 63.1644 67.0991 63.1095C65.0233 61.6043 62.4889 60.2192 59.9258 58.8184C58.9888 58.3063 58.048 57.7922 57.1243 57.2692C56.4595 56.8932 55.7269 56.493 54.9497 56.0683C47.613 52.06 36.2919 45.8749 40.3232 37.2817C46.0515 26.158 68.5298 20.0347 94.1645 19.3181L72.7272 3.25632ZM105.468 27.787C105.123 28.0097 104.714 28.135 104.284 28.1314C81.9119 27.951 65.9064 32.4343 60.4602 37.0192C54.4421 42.0849 65.7613 48.5249 71.402 51.7341C72.1114 52.1377 72.731 52.4902 73.215 52.7825C73.9695 53.2374 74.7185 53.6805 75.4607 54.1196C78.9805 56.2021 82.349 58.195 85.4446 60.929C85.5462 61.0271 85.6718 61.1018 85.8053 61.1487C85.8581 61.1671 85.9129 61.1805 85.9687 61.1895C96.0218 60.0973 105.49 59.5191 113.809 59.3405L113.809 42.2063C113.809 37.0636 111.386 32.2215 107.271 29.1379L105.468 27.787ZM113.809 66.0126C109.365 66.1407 104.199 66.4293 98.439 66.986C96.086 67.2211 93.7022 67.5001 91.6322 67.8155C91.542 67.8274 91.4598 67.8628 91.3851 67.9136C91.3108 67.9649 91.2521 68.0317 91.2087 68.1099C91.1654 68.1886 91.142 68.2748 91.138 68.365C91.134 68.4517 91.1499 68.5419 91.1853 68.6241C91.8713 70.2247 92.236 71.9465 92.2479 73.6877C92.2479 94.1699 66.9382 99.6022 44.2007 100.206C36.5089 100.41 29.198 99.9421 22.8098 99.0059L53.1445 121.734C58.948 126.082 66.9239 126.082 72.7275 121.734L107.271 95.8524C111.387 92.7688 113.809 87.9265 113.809 82.7838L113.809 66.0126ZM35.7353 91.7103L35.7393 91.7143C52.0621 91.0083 74.4739 85.0663 74.4739 73.9034C74.4739 73.0525 74.3563 72.3112 74.2228 71.7348C74.0893 71.1579 73.5208 70.7972 72.9444 70.9187C46.8979 76.4806 20.7651 85.0425 20.7651 89.3768C20.7651 91.2121 28.5364 92.0202 35.7353 91.7103Z" fill="#FF5A00"/>
</svg>
